<svg width="25" height="25" viewBox="0 0 25 25" fill="none" xmlns="http://www.w3.org/2000/svg">
<path d="M22 11C22 11 22 11.06 21.995 11.175C21.995 11.255 21.99 11.355 21.98 11.48C21.93 12.11 21.76 13.305 21.22 14.76C20.385 16.99 18.675 19.825 15.135 22.135C14.365 22.64 13.51 23.12 12.56 23.56V20.5H12.5C7.275 20.5 3 16.225 3 11C3 5.775 7.275 1.5 12.5 1.5C17.725 1.5 22 5.775 22 11Z" fill="white"/>
<path d="M18.5 10.625V14L16 12V13.5C16 14.05 15.55 14.5 15 14.5H8C7.705 14.5 7.48 14.445 7.32 14.32L7.18 14.18C7.055 14.02 7 13.795 7 13.5V10.625H18.5Z" fill="#5E548E"/>
<path d="M18.5 8V11H7V8.5C7 7.81 7.31 7.5 8 7.5H15C15.55 7.5 16 7.95 16 8.5V10L18.5 8Z" fill="#5E548E"/>
</svg>
