<svg width="31" height="43" viewBox="0 0 31 43" fill="none" xmlns="http://www.w3.org/2000/svg">
<path d="M12.1941 4.12062C14.3535 2.26503 18.0824 1.34377 20.9192 2.53174C30.0777 6.36668 25.0692 19.2717 15.8909 17.9905C9.70441 17.1272 10.0452 5.26849 14.8561 3.25384" stroke="#5E548E" stroke-width="3" stroke-linecap="round" stroke-linejoin="round"/>
<path d="M7.22547 14.4123C2.84901 19.1447 0.0117972 33.8046 2.32699 39.8285C2.57637 40.4758 3.20403 40.6235 3.67923 40.1268C9.0591 36.839 15.539 31.1969 20.5148 26.4496C20.7503 26.2248 21.0488 26.2018 21.3522 26.2403C21.4358 26.3474 21.4247 26.4614 21.4137 26.5738C21.235 28.3761 21.1496 31.8144 21.1052 33.6258C21.0646 35.2708 20.8909 36.9142 20.9032 38.5633C20.9062 38.9709 20.8637 39.8631 20.9032 40.2679C20.9337 40.578 21.5592 40.7494 21.4137 41.0772" stroke="#5E548E" stroke-width="3" stroke-linecap="round" stroke-linejoin="round"/>
<path d="M7.24211 14.3904C7.14296 14.9073 8.12409 17.0522 8.43171 17.4885C10.9542 21.0634 13.8277 26.2033 18.6658 26.7742C19.1047 26.8259 19.5448 26.5874 19.9741 26.8234C20.0737 26.8784 20.1873 26.7509 20.2746 26.6801C20.5445 26.4612 20.8089 26.2348 21.0049 25.9476C21.1887 25.6788 21.3468 25.3998 21.7803 25.5417C22.2004 25.6796 22.4818 25.9164 22.5117 26.3541C22.5288 26.6036 22.5282 26.85 22.6473 27.0804C24.7963 31.2314 26.7085 35.184 28.1824 39.6072C28.3542 40.123 28.6479 40.4023 29.2701 40.332" stroke="#5E548E" stroke-width="3" stroke-linecap="round" stroke-linejoin="round"/>
</svg>
