<svg width="43" height="45" viewBox="0 0 43 45" fill="none" xmlns="http://www.w3.org/2000/svg">
<path d="M25.8848 35.2992C25.9123 35.1912 25.9215 35.0779 25.9398 34.9673C26.2262 33.2324 26.4569 31.4894 26.6233 29.7362C26.7646 28.2445 26.9273 26.7572 27.1958 25.2818C27.5503 23.3326 27.8558 21.3723 28.154 19.4119" stroke="#5E548E" stroke-width="3" stroke-linecap="round" stroke-linejoin="round"/>
<path d="M15.7807 19.4935C15.7902 20.0141 16.5614 24.1029 16.8773 25.6333C17.1327 26.8709 17.4209 28.1091 17.5594 29.3625C17.7356 30.9547 17.9583 32.5375 18.1767 34.1228" stroke="#5E548E" stroke-width="3" stroke-linecap="round" stroke-linejoin="round"/>
<path fill-rule="evenodd" clip-rule="evenodd" d="M21.6047 40.8724C21.8558 40.8048 22.0537 40.7895 22.303 40.8602C23.6806 41.2516 25.0249 41.7452 26.3936 42.1647C27.8983 42.626 29.4144 42.8001 30.9526 42.7056C32.4532 42.6137 33.948 42.3916 35.4374 42.174C36.4455 42.0269 40.6126 41.0431 40.6126 38.2104C40.6126 35.3778 36.916 35.422 36.5358 35.4721C35.6621 35.5872 34.7921 35.5769 33.9143 35.527C32.8655 35.4671 31.8061 35.4326 30.7804 35.7227C29.4346 36.1033 27.936 36.5003 26.6064 36.9323C26.3047 37.0305 26.0506 37.0554 25.8213 36.8769C25.3538 36.5133 23.7398 36.0441 22.2438 36.0441C20.7477 36.0441 18.9288 36.4517 18.5696 36.7377C17.9142 37.259 17.2972 37.1804 16.713 36.6101C16.2453 36.1535 15.698 35.8746 15.0776 35.7182C14.535 35.5814 13.9874 35.4636 13.4425 35.3351C11.0297 34.7656 4.04386 34.7656 4.38122 38.2104C4.50625 39.4871 5.28338 40.5807 5.75291 40.8846C6.38479 41.2935 11.4579 42.1465 13.3145 42.133C16.713 42.5057 20.3543 41.2086 21.6047 40.8724Z" stroke="#5E548E" stroke-width="3" stroke-linecap="round" stroke-linejoin="round"/>
<path d="M1.5 35.6326C1.97993 35.7319 2.46117 35.8063 2.95854 35.7898C3.43137 35.7743 3.86211 35.6775 4.22137 35.3615C4.62913 35.0026 6.50152 34.7294 7.30209 34.4812C8.10533 34.2322 9.60503 33.3711 10.2918 32.8635C10.5599 32.6653 10.743 32.4442 10.8831 32.157C12.3612 29.1306 12.5435 28.7433 13.387 25.4985C13.527 24.9595 15.1862 19.2888 15.7842 19.4423M28.4539 19.0485C28.8804 19.0287 29.3664 25.6091 31.7349 31.7534C32.1628 32.8635 37.7744 34.5459 39.1143 34.8414C39.8661 35.0071 40.9646 35.2469 41.5 34.7044" stroke="#5E548E" stroke-width="3" stroke-linecap="round" stroke-linejoin="round"/>
<path d="M16.6655 4.48907C22.3389 -3.30971 32.6866 9.24751 25.4152 14.3875C19.765 18.382 13.1313 12.156 15.7841 6.73867" stroke="#5E548E" stroke-width="3" stroke-linecap="round" stroke-linejoin="round"/>
</svg>
