<svg width="50" height="49" viewBox="0 0 50 49" fill="none" xmlns="http://www.w3.org/2000/svg">
<path d="M25.835 17.5224C26.0081 16.5418 27.0762 13.9205 25.6461 13.3458C24.6032 12.9268 24.8759 15.5145 24.5124 15.1493C24.1686 14.8039 24.5543 13.9301 23.9454 13.4408C23.7303 13.2679 23.2787 13.1578 23.0006 13.2509C21.1938 13.856 25.3195 17.0044 25.835 17.5224Z" stroke="#EB5757" stroke-width="2" stroke-linecap="round" stroke-linejoin="round"/>
<path d="M4.74941 8.93751C5.79789 8.38359 7.12881 7.75182 8.32389 8.09957C13.345 9.56058 10.5766 18.4768 5.49778 16.7813C0.956823 15.2654 2.08421 10.3104 5.49778 8.93751" stroke="#5E548E" stroke-width="2" stroke-linecap="round" stroke-linejoin="round"/>
<path d="M9.54417 20.2192C9.14235 27.2427 9.02965 34.5762 10.6108 41.4813" stroke="#5E548E" stroke-width="2" stroke-linecap="round" stroke-linejoin="round"/>
<path d="M9.43494 30.4074C10.6809 34.0992 13.1194 37.0892 14.7259 40.5955" stroke="#5E548E" stroke-width="2" stroke-linecap="round" stroke-linejoin="round"/>
<path d="M9.14129 41.3631C8.68217 41.4277 8.25922 41.6195 7.81848 41.7476" stroke="#5E548E" stroke-width="2" stroke-linecap="round" stroke-linejoin="round"/>
<path d="M14.8731 40.8907C14.1655 40.933 13.559 41.3991 12.9625 41.629" stroke="#5E548E" stroke-width="2" stroke-linecap="round" stroke-linejoin="round"/>
<path d="M10.0229 19.6286C12.7661 17.7817 16.0247 18.1917 19.1353 17.5615" stroke="#5E548E" stroke-width="2" stroke-linecap="round" stroke-linejoin="round"/>
<path d="M19.1948 14.4607C18.8831 16.0884 18.9426 16.9554 19.28 18.2997" stroke="#5E548E" stroke-width="2" stroke-linecap="round" stroke-linejoin="round"/>
<path d="M9.5818 19.6286C6.63882 22.4906 3.49946 26.5297 3.26202 30.4074" stroke="#5E548E" stroke-width="2" stroke-linecap="round" stroke-linejoin="round"/>
<path d="M45.2506 8.93751C44.2021 8.38359 42.8712 7.75182 41.6761 8.09957C36.655 9.56058 39.4234 18.4768 44.5022 16.7813C49.0432 15.2654 47.9158 10.3104 44.5022 8.93751" stroke="#5E548E" stroke-width="2" stroke-linecap="round" stroke-linejoin="round"/>
<path d="M40.4558 20.2192C40.8577 27.2427 40.9703 34.5762 39.3892 41.4813" stroke="#5E548E" stroke-width="2" stroke-linecap="round" stroke-linejoin="round"/>
<path d="M40.5651 30.4074C39.3191 34.0992 36.8806 37.0892 35.2741 40.5955" stroke="#5E548E" stroke-width="2" stroke-linecap="round" stroke-linejoin="round"/>
<path d="M40.8587 41.3631C41.3178 41.4277 41.7408 41.6195 42.1815 41.7476" stroke="#5E548E" stroke-width="2" stroke-linecap="round" stroke-linejoin="round"/>
<path d="M35.1269 40.8907C35.8345 40.933 36.441 41.3991 37.0375 41.629" stroke="#5E548E" stroke-width="2" stroke-linecap="round" stroke-linejoin="round"/>
<path d="M39.9771 19.6286C37.2339 17.7817 33.9753 18.1917 30.8647 17.5615" stroke="#5E548E" stroke-width="2" stroke-linecap="round" stroke-linejoin="round"/>
<path d="M30.8052 14.4607C31.1169 16.0884 31.0574 16.9554 30.72 18.2997" stroke="#5E548E" stroke-width="2" stroke-linecap="round" stroke-linejoin="round"/>
<path d="M40.4182 19.6286C43.3612 22.4906 46.5005 26.5297 46.738 30.4074" stroke="#5E548E" stroke-width="2" stroke-linecap="round" stroke-linejoin="round"/>
</svg>
