<svg width="20" height="26" viewBox="0 0 20 26" fill="none" xmlns="http://www.w3.org/2000/svg">
<path fill-rule="evenodd" clip-rule="evenodd" d="M10.3797 22.7132C10.2089 22.8437 10.0497 22.9622 9.90427 23.0685C9.74907 22.9612 9.57693 22.8379 9.39027 22.6989C8.51013 22.0429 7.36867 21.08 6.24451 19.879C3.93869 17.4156 2 14.271 2 10.9167C2 6.31429 5.58172 2.58333 10 2.58333C14.4183 2.58333 18 6.31429 18 10.9167C18 14.235 15.9759 17.3706 13.5857 19.8601C12.4261 21.0682 11.2592 22.0415 10.3797 22.7132ZM20 10.9167C20 19.25 10 25.5 10 25.5C9.5 25.5 0 19.25 0 10.9167C0 5.16369 4.47715 0.5 10 0.5C15.5228 0.5 20 5.16369 20 10.9167ZM12 10.9167C12 12.0672 11.1045 13 10 13C8.89547 13 8 12.0672 8 10.9167C8 9.76607 8.89547 8.83333 10 8.83333C11.1045 8.83333 12 9.76607 12 10.9167ZM14 10.9167C14 13.2179 12.2092 15.0833 10 15.0833C7.7908 15.0833 6 13.2179 6 10.9167C6 8.61549 7.7908 6.75 10 6.75C12.2092 6.75 14 8.61549 14 10.9167Z" fill="white"/>
</svg>
