<svg width="20" height="25" viewBox="0 0 20 25" fill="none" xmlns="http://www.w3.org/2000/svg">
<path fill-rule="evenodd" clip-rule="evenodd" d="M10.3797 22.2132C10.2089 22.3437 10.0497 22.4622 9.90427 22.5685C9.74907 22.4612 9.57693 22.3379 9.39027 22.1989C8.51013 21.5429 7.36867 20.58 6.24451 19.379C3.93869 16.9156 2 13.771 2 10.4167C2 5.81429 5.58172 2.08333 10 2.08333C14.4183 2.08333 18 5.81429 18 10.4167C18 13.735 15.9759 16.8706 13.5857 19.3601C12.4261 20.5682 11.2592 21.5415 10.3797 22.2132ZM20 10.4167C20 18.75 10 25 10 25C9.5 25 0 18.75 0 10.4167C0 4.66369 4.47715 0 10 0C15.5228 0 20 4.66369 20 10.4167ZM12 10.4167C12 11.5672 11.1045 12.5 10 12.5C8.89547 12.5 8 11.5672 8 10.4167C8 9.26607 8.89547 8.33333 10 8.33333C11.1045 8.33333 12 9.26607 12 10.4167ZM14 10.4167C14 12.7179 12.2092 14.5833 10 14.5833C7.7908 14.5833 6 12.7179 6 10.4167C6 8.11549 7.7908 6.25 10 6.25C12.2092 6.25 14 8.11549 14 10.4167Z" fill="#5E548E"/>
</svg>
