<svg width="22" height="22" viewBox="0 0 22 22" fill="none" xmlns="http://www.w3.org/2000/svg">
<path d="M11.0049 0C11.5571 4.82789e-08 12.0048 0.447769 12.0049 1V9.96582H21C21.5521 9.96582 21.9998 10.4137 22 10.9658C22 11.5181 21.5523 11.9658 21 11.9658H12.0049V21C12.0049 21.5523 11.5572 22 11.0049 22C10.4527 21.9999 10.0049 21.5522 10.0049 21V11.9658H1C0.447771 11.9658 -2.41394e-08 11.5181 0 10.9658C0.000221044 10.4138 0.447908 9.96589 1 9.96582H10.0049V1C10.0049 0.447849 10.4527 0.000129749 11.0049 0Z" fill="#5E548E"/>
</svg>
