<svg width="18" height="18" viewBox="0 0 18 18" fill="none" xmlns="http://www.w3.org/2000/svg">
<path d="M18 0.578125C17.7799 2.11927 17.67 5.43263 17.6699 6.52246C17.6699 8.00868 14.3671 10.8163 11.2295 10.8164V16.1006C11.89 16.2657 13.2107 16.7614 13.2109 17.4219H4.29395C4.56937 16.9814 5.41677 16.1006 6.60547 16.1006V10.8115C3.51825 10.716 0.330078 7.98263 0.330078 6.52246C0.330048 5.43263 0.220137 2.11927 0 0.578125C4.95413 0.578125 3.96347 6.02743 4.62402 7.51367C5.09974 8.58404 6.05771 9.01808 6.60547 9.13477V3.2207C6.66051 2.45011 6.27527 0.908397 4.29395 0.908203H13.2109C12.5504 1.18344 11.2295 2.03172 11.2295 3.2207V9.16504C11.725 9.10993 12.8476 8.70254 13.376 7.51367C14.0365 6.02743 13.0459 0.578125 18 0.578125Z" fill="#5E548E"/>
</svg>
