<svg width="18" height="18" viewBox="0 0 18 18" fill="none" xmlns="http://www.w3.org/2000/svg">
<path d="M8.04894 0.927051C8.3483 0.00574017 9.6517 0.00573993 9.95106 0.927051L11.3574 5.25532C11.4913 5.66734 11.8752 5.9463 12.3085 5.9463H16.8595C17.8282 5.9463 18.231 7.18592 17.4473 7.75532L13.7654 10.4303C13.4149 10.685 13.2683 11.1364 13.4021 11.5484L14.8085 15.8766C15.1078 16.798 14.0533 17.5641 13.2696 16.9947L9.58778 14.3197C9.2373 14.065 8.7627 14.065 8.41221 14.3197L4.73037 16.9947C3.94665 17.5641 2.89217 16.798 3.19153 15.8766L4.59787 11.5484C4.73174 11.1364 4.58508 10.685 4.2346 10.4303L0.552749 7.75532C-0.230965 7.18592 0.17181 5.9463 1.14053 5.9463H5.69155C6.12477 5.9463 6.50873 5.66734 6.6426 5.25532L8.04894 0.927051Z" fill="white"/>
</svg>
