<svg width="16" height="14" viewBox="0 0 16 14" fill="none" xmlns="http://www.w3.org/2000/svg">
<path d="M14.6048 0.295494C14.6048 0.295494 16.078 -0.295356 15.9552 1.13957C15.9143 1.73042 15.546 3.7984 15.2596 6.0352L14.2775 12.6612C14.2775 12.6612 14.1956 13.6319 13.459 13.8007C12.7224 13.9695 11.6176 13.2098 11.4129 13.041C11.2492 12.9144 8.34384 11.0152 7.32077 10.0868C7.03431 9.83353 6.70694 9.32707 7.36168 8.73622L11.6585 4.51588C12.1495 4.00943 12.6406 2.82773 10.5945 4.26265L4.86548 8.27201C4.86548 8.27201 4.21073 8.69403 2.9831 8.31421L0.323178 7.47013C0.323178 7.47013 -0.658944 6.83708 1.01885 6.20399C5.11102 4.22042 10.1444 2.19464 14.6048 0.295494Z" fill="white"/>
</svg>
